<?xml version="1.0" encoding="UTF-8"?>
<svg width="305px" height="101px" viewBox="0 0 305 101" version="1.1" xmlns="http://www.w3.org/2000/svg" xmlns:xlink="http://www.w3.org/1999/xlink">
    <!-- Generator: Sketch 49 (51002) - http://www.bohemiancoding.com/sketch -->
    <title>bee-empty</title>
    <desc>Created with Sketch.</desc>
    <defs></defs>
    <g id="Symbols" stroke="none" stroke-width="1" fill="none" fill-rule="evenodd">
        <g id="nany-no-records" transform="translate(1.000000, -21.000000)">
            <g id="bee-empty" transform="translate(0.000000, 12.000000)">
                <path d="M304.972736,32.4459323 C302.689225,32.4459323 300.997735,31.008166 300.405713,28.8092292 L297.191883,16.7996519 L307.425396,23.7347599 C308.863162,24.7496538 309.708907,26.1028456 309.708907,27.7943354 C309.708907,30.33157 307.594545,32.4459323 304.972736,32.4459323 Z M277.260495,32.4459323 C274.638686,32.4459323 272.524324,30.33157 272.524324,27.7943354 C272.524324,26.1028456 273.370068,24.7496538 274.807835,23.7347599 L285.041348,16.7996519 L281.827517,28.8092292 C281.235496,31.008166 279.544006,32.4459323 277.260495,32.4459323 Z M297.375128,21.2045731 L297.375128,24.3338292 L284.858103,24.3338292 L284.858103,21.2045731 L297.375128,21.2045731 Z M297.375128,27.3714629 L297.375128,30.500719 L284.858103,30.500719 L284.858103,27.3714629 L297.375128,27.3714629 Z M291.151855,36.6676088 C288.868344,36.6676088 286.753981,35.483566 285.739087,33.5383527 L296.564622,33.5383527 C295.549728,35.483566 293.435366,36.6676088 291.151855,36.6676088 Z M291.151855,15.0376833 C293.435366,15.0376833 295.549728,16.2217262 296.564622,18.1669394 L285.739087,18.1669394 C286.753981,16.2217262 288.868344,15.0376833 291.151855,15.0376833 Z M294.696935,14.2835608 C293.174595,14.2835608 291.905977,13.099518 291.905977,11.5771772 C291.905977,10.0548364 293.174595,8.87079354 294.696935,8.87079354 C296.219276,8.87079354 297.487893,10.0548364 297.487893,11.5771772 C297.487893,13.099518 296.219276,14.2835608 294.696935,14.2835608 Z M287.649061,14.2835608 C286.126721,14.2835608 284.858103,13.099518 284.858103,11.5771772 C284.858103,10.0548364 286.126721,8.87079354 287.649061,8.87079354 C289.171402,8.87079354 290.440019,10.0548364 290.440019,11.5771772 C290.440019,13.099518 289.171402,14.2835608 287.649061,14.2835608 Z" id="bee" fill="#AEAEAE" transform="translate(291.116615, 22.769201) rotate(-321.000000) translate(-291.116615, -22.769201) "></path>
                <path d="M0,80.4658087 C24.1610653,115.058228 49.9752859,118.559963 77.4426621,90.9710149 C118.643726,49.5875924 194.531953,58.4620251 198.414353,78.6661121 C202.296753,98.8701992 175.754712,102.029117 167.605368,90.9710149 C159.456024,79.9129124 175.422636,49.5285676 204.2593,48.122145 C217.564246,47.4732357 233.551663,59.8659887 248.769763,55.1820389 C264.061441,50.4754429 274.48269,44.1170523 280.033511,36.1068669" id="bee-path" stroke="#AEAEAE" stroke-dasharray="4,4"></path>
            </g>
        </g>
    </g>
</svg>