<?xml version="1.0" encoding="UTF-8"?>
<svg width="20px" height="20px" viewBox="0 0 20 20" version="1.1" xmlns="http://www.w3.org/2000/svg" xmlns:xlink="http://www.w3.org/1999/xlink">
    <!-- Generator: Sketch 49 (51002) - http://www.bohemiancoding.com/sketch -->
    <title>small-lookup</title>
    <desc>Created with Sketch.</desc>
    <defs></defs>
    <g id="Symbols" stroke="none" stroke-width="1" fill="none" fill-rule="evenodd">
        <g id="nany-filter-/-subheader" transform="translate(-297.000000, -14.000000)" fill="#FFFFFF">
            <g id="small-lookup" transform="translate(297.000000, 14.000000)">
                <path d="M13.591929,11.8757114 L19.9585737,18.2486169 L19.9585737,19.9614908 L18.2335345,19.9614908 L11.87427,13.5929658 C10.6430047,14.47848 9.13240611,15 7.5,15 C3.35786438,15 0,11.6421356 0,7.5 C0,3.35786438 3.35786438,0 7.5,0 C11.6421356,0 15,3.35786438 15,7.5 C15,9.13304315 14.4780729,10.6441837 13.591929,11.8757114 Z M7.5,13.3333333 C10.721661,13.3333333 13.3333333,10.721661 13.3333333,7.5 C13.3333333,4.27833896 10.721661,1.66666667 7.5,1.66666667 C4.27833896,1.66666667 1.66666667,4.27833896 1.66666667,7.5 C1.66666667,10.721661 4.27833896,13.3333333 7.5,13.3333333 Z" id="Combined-Shape"></path>
            </g>
        </g>
    </g>
</svg>