<?xml version="1.0" encoding="UTF-8"?>
<svg width="35px" height="39px" viewBox="0 0 35 39" version="1.1" xmlns="http://www.w3.org/2000/svg" xmlns:xlink="http://www.w3.org/1999/xlink">
    <!-- Generator: Sketch 49.3 (51167) - http://www.bohemiancoding.com/sketch -->
    <title>action_timer_OFF</title>
    <desc>Created with Sketch.</desc>
    <defs></defs>
    <g id="Symbols" stroke="none" stroke-width="1" fill="none" fill-rule="evenodd">
        <g id="nany-icon-/-timer-/-off" transform="translate(-5.000000, -3.000000)" fill="#5AAAFA">
            <path d="M22.7254628,22.0883087 L28.3436955,17.1662321 L30.3109096,17.1325484 L30.2768031,19.1172845 L24.8376415,24.0239403 C24.9428704,24.3299299 25,24.6582933 25,25 C25,26.6568542 23.6568542,28 22,28 C20.3431458,28 19,26.6568542 19,25 C19,23.3431458 20.3431458,22 22,22 C22.250153,22 22.4931549,22.0306172 22.7254628,22.0883087 Z M31.5865369,9.54092321 L33.9253441,6.85043327 L37.698892,10.1307284 L35.4449258,12.7236199 C38.2748255,15.832511 40,19.9647874 40,24.5 C40,34.1649831 32.1649831,42 22.5,42 C12.8350169,42 5,34.1649831 5,24.5 C5,15.6838202 11.5192646,8.3902963 20,7.17722215 L20,6 L18,6 L18,3 L27,3 L27,6 L25,6 L25,7.17722215 C27.384313,7.5182714 29.6135869,8.33993333 31.5865369,9.54092321 Z M22.5,39 C30.5081289,39 37,32.5081289 37,24.5 C37,16.4918711 30.5081289,10 22.5,10 C14.4918711,10 8,16.4918711 8,24.5 C8,32.5081289 14.4918711,39 22.5,39 Z" id="action_timer_OFF"></path>
        </g>
    </g>
</svg>