<?xml version="1.0" encoding="UTF-8"?>
<svg width="32px" height="32px" viewBox="0 0 32 32" version="1.1" xmlns="http://www.w3.org/2000/svg" xmlns:xlink="http://www.w3.org/1999/xlink">
    <!-- Generator: Sketch 49.3 (51167) - http://www.bohemiancoding.com/sketch -->
    <title>acBtn_manage_po</title>
    <desc>Created with Sketch.</desc>
    <defs></defs>
    <g id="acBtn_manage_po" stroke="none" stroke-width="1" fill="none" fill-rule="evenodd">
        <g transform="translate(3.000000, 7.000000)" fill="#5AAAFA">
            <path d="M2,17 L10,17 L10,19 L1.77635684e-15,19 L1.77635684e-15,17 L4.4408921e-16,14.5 L2,14.5 L2,17 Z" id="action_move_asset"></path>
            <path d="M10.9501953,10.1091076 C10.9501953,9.89639248 10.9223636,9.71221505 10.8666992,9.55656981 C10.8110349,9.40092457 10.7231451,9.26214298 10.6030273,9.14022088 C10.4829096,9.01829878 10.3261728,8.90545767 10.1328125,8.80169418 C9.93945216,8.69793069 9.7050795,8.59416875 9.4296875,8.49040526 C8.84960647,8.28287828 8.31640868,8.07276036 7.83007812,7.8600452 C7.34374757,7.64733004 6.92480645,7.40348949 6.57324219,7.12851624 C6.22167793,6.85354299 5.94921972,6.52928694 5.75585938,6.15573837 C5.56249903,5.7821898 5.46582031,5.33082538 5.46582031,4.80163157 C5.46582031,4.36063673 5.55371006,3.95596519 5.72949219,3.58760479 C5.90527432,3.21924439 6.15429526,2.89887942 6.4765625,2.62650025 C6.79882974,2.35412109 7.18554462,2.13362697 7.63671875,1.9650113 C8.08789288,1.79639563 8.13964844,1.74008179 8.13964844,1.67317794 L8.13964844,0 L10.5371094,0 L10.5371094,1.67317794 C11.052737,1.74062421 11.5229471,1.87032663 11.9477539,2.06228909 C12.3725607,2.25425155 12.7358383,2.50457722 13.0375977,2.8132736 C13.339357,3.12196999 13.5722648,3.48383974 13.7363281,3.89889371 C13.9003914,4.31394768 13.9824219,4.77568829 13.9824219,5.2841294 L11.0117188,5.2841294 C11.0117188,4.98840345 10.9780277,4.7341867 10.9106445,4.52147155 C10.8432614,4.30875639 10.7480475,4.13365812 10.625,3.9961715 C10.5019525,3.85868487 10.3583993,3.75881401 10.1943359,3.69655591 C10.0302726,3.63429782 9.85156347,3.60316924 9.65820312,3.60316924 C9.44140517,3.60316924 9.25537187,3.63559484 9.10009766,3.70044702 C8.94482344,3.7652992 8.81884814,3.85219983 8.72216797,3.96115149 C8.6254878,4.07010316 8.55371117,4.19850855 8.50683594,4.34637153 C8.4599607,4.4942345 8.43652344,4.65117443 8.43652344,4.81719602 C8.43652344,4.99359395 8.4599607,5.15183091 8.50683594,5.29191162 C8.55371117,5.43199233 8.6357416,5.56169475 8.75292969,5.68102277 C8.87011777,5.80035078 9.02685449,5.91578594 9.22314453,6.02733169 C9.41943458,6.13887744 9.66406104,6.25171855 9.95703125,6.36585839 C10.5253935,6.57857355 11.0512671,6.79517659 11.534668,7.01567401 C12.0180688,7.23617143 12.4355451,7.4864971 12.7871094,7.76665852 C13.1386736,8.04681995 13.4140615,8.37367005 13.6132812,8.74721862 C13.812501,9.12076719 13.9121094,9.56953756 13.9121094,10.0935432 C13.9121094,10.5552907 13.8271493,10.9690414 13.6572266,11.3348078 C13.4873038,11.7005741 13.2470719,12.017048 12.9365234,12.284239 C12.625975,12.5514299 12.2524436,12.766736 11.815918,12.9301635 C11.3793923,13.093591 10.8945339,13.1986499 10.3613281,13.2453435 L10.3613281,14.8095703 L7.96386719,14.8095703 L7.96386719,13.2375613 C7.96386719,13.0870972 7.96924067,13.0896998 7.49169922,12.9340546 C7.01415777,12.7784093 6.59082216,12.5501331 6.22167969,12.249219 C5.85253722,11.9483048 5.55664174,11.5708708 5.33398438,11.1169055 C5.11132701,10.6629402 5,10.1168931 5,9.47874758 L7.96191406,9.47874758 C7.96191406,9.82635528 8.00878859,10.1155917 8.10253906,10.3464654 C8.19628953,10.5773392 8.32226483,10.7628137 8.48046875,10.9028944 C8.63867267,11.0429751 8.82031147,11.142846 9.02539062,11.20251 C9.23046978,11.262174 9.44433482,11.2920055 9.66699219,11.2920055 C9.88964955,11.2920055 10.0815422,11.2608769 10.2426758,11.1986189 C10.4038094,11.1363608 10.5371088,11.0520542 10.6425781,10.9456966 C10.7480474,10.839339 10.8256833,10.7148247 10.8754883,10.5721499 C10.9252932,10.4294751 10.9501953,10.2751292 10.9501953,10.1091076 Z" id="$"></path>
            <path d="M24.6,14 C24.6,14.246 24.5752,14.4856 24.538,14.7212 L26,16 L24.7576,18.0392 L23.014,17.4696 C22.5972,17.832 22.1148,18.1188 21.5864,18.3132 L21.2,20 L18.8,20 L18.4136,18.3136 C17.8852,18.1192 17.4024,17.8324 16.9856,17.4696 L15.2424,18.0392 L14,16 L15.462,14.7208 C15.4248,14.4852 15.4,14.246 15.4,14 C15.4,13.7544 15.4248,13.5148 15.462,13.2796 L14,12 L15.242,9.9608 L16.9856,10.5308 C17.4028,10.168 17.8852,9.8812 18.4136,9.6868 L18.8,8 L21.2,8 L21.5868,9.6868 C22.1152,9.8812 22.5976,10.168 23.0144,10.5304 L24.758,9.9608 L26,12 L24.538,13.2792 C24.5752,13.5148 24.6,13.754 24.6,14 Z M20,11.4285714 C18.5797143,11.4285714 17.4285714,12.5792857 17.4285714,14 C17.4285714,15.4207143 18.5797143,16.5714286 20,16.5714286 C21.4207143,16.5714286 22.5714286,15.4207143 22.5714286,14 C22.5714286,12.5792857 21.4207143,11.4285714 20,11.4285714 Z" id="Combined-Shape"></path>
        </g>
    </g>
</svg>