<?xml version="1.0" encoding="UTF-8"?>
<svg width="32px" height="32px" viewBox="0 0 32 32" version="1.1" xmlns="http://www.w3.org/2000/svg" xmlns:xlink="http://www.w3.org/1999/xlink">
    <!-- Generator: Sketch 49.3 (51167) - http://www.bohemiancoding.com/sketch -->
    <title>acBtn_manage_shipments</title>
    <desc>Created with Sketch.</desc>
    <defs></defs>
    <g id="acBtn_manage_shipments" stroke="none" stroke-width="1" fill="none" fill-rule="evenodd">
        <g transform="translate(3.000000, 5.000000)" fill="#5AAAFA">
            <path d="M1.77635684e-15,2 L1.77635684e-15,0 L17,0 L17,2 L17,10 L15,10 L15,2 L2,2 L2,16 L11,16 L11,18 L1.77635684e-15,18 L1.77635684e-15,16 L3.20731096e-15,2 Z" id="action_move_asset"></path>
            <rect id="Rectangle-22" x="7" y="1" width="3" height="7"></rect>
            <path d="M24.6,18 C24.6,18.246 24.5752,18.4856 24.538,18.7212 L26,20 L24.7576,22.0392 L23.014,21.4696 C22.5972,21.832 22.1148,22.1188 21.5864,22.3132 L21.2,24 L18.8,24 L18.4136,22.3136 C17.8852,22.1192 17.4024,21.8324 16.9856,21.4696 L15.2424,22.0392 L14,20 L15.462,18.7208 C15.4248,18.4852 15.4,18.246 15.4,18 C15.4,17.7544 15.4248,17.5148 15.462,17.2796 L14,16 L15.242,13.9608 L16.9856,14.5308 C17.4028,14.168 17.8852,13.8812 18.4136,13.6868 L18.8,12 L21.2,12 L21.5868,13.6868 C22.1152,13.8812 22.5976,14.168 23.0144,14.5304 L24.758,13.9608 L26,16 L24.538,17.2792 C24.5752,17.5148 24.6,17.754 24.6,18 Z M20,15.4285714 C18.5797143,15.4285714 17.4285714,16.5792857 17.4285714,18 C17.4285714,19.4207143 18.5797143,20.5714286 20,20.5714286 C21.4207143,20.5714286 22.5714286,19.4207143 22.5714286,18 C22.5714286,16.5792857 21.4207143,15.4285714 20,15.4285714 Z" id="Combined-Shape"></path>
        </g>
    </g>
</svg>