<?xml version="1.0" encoding="UTF-8"?>
<svg width="32px" height="32px" viewBox="0 0 32 32" version="1.1" xmlns="http://www.w3.org/2000/svg" xmlns:xlink="http://www.w3.org/1999/xlink">
    <!-- Generator: Sketch 49.3 (51167) - http://www.bohemiancoding.com/sketch -->
    <title>acBtn_transfer_reserved</title>
    <desc>Created with Sketch.</desc>
    <defs></defs>
    <g id="acBtn_transfer_reserved" stroke="none" stroke-width="1" fill="none" fill-rule="evenodd">
        <g transform="translate(3.000000, 6.000000)">
            <path d="M20,11 L13,11 L13,8 L20,8 L20,4 L26,9.5 L20,15 L20,11 Z M2.02625199,10.1320014 C0.940095991,10.2220517 0.284589273,10.2670769 0.0597318397,10.2670769 C0.0310309255,10.0160376 0,9.66307886 0,9.5 C0,4.25329488 4.25329488,0 9.5,0 C12.6792296,0 15.493706,1.5616941 17.2181455,3.95979855 C17.3071454,4.08356688 16.8024465,4.52512045 15.7040488,5.28445925 C14.3543403,3.30193236 12.0792115,2 9.5,2 C5.35786438,2 2,5.35786438 2,9.5 C2,9.71285455 2.00886708,9.92363808 2.02625199,10.1320014 Z M15.5602737,13.9193738 C16.6360786,14.709927 17.1304319,15.1619964 17.0433337,15.2755819 C15.4053939,17.4116323 12.8806202,18.831895 10.019337,18.9860457 C9.96940876,18.5956496 9.89316316,17.9317922 9.79060019,16.9944736 C12.1609264,16.9041676 14.2494474,15.7138378 15.5602737,13.9193738 Z" id="action_move_asset" fill="#5AAAFA" fill-rule="nonzero"></path>
            <path d="M6,15.4933487 C6,14.2111286 6,13.4093132 6,13.0879027 C6,11.9347859 5.1045695,11 4,11 C2.8954305,11 2,11.9347859 2,13.0879027 C2,13.3846383 2,14.1864536 2,15.4933487 L6,15.4933487 Z" id="Oval-10" stroke="#5AAAFA"></path>
            <rect id="Rectangle-20" fill="#5AAAFA" x="0" y="15" width="8" height="6"></rect>
        </g>
    </g>
</svg>