<?xml version="1.0" encoding="UTF-8"?>
<svg width="32px" height="32px" viewBox="0 0 32 32" version="1.1" xmlns="http://www.w3.org/2000/svg" xmlns:xlink="http://www.w3.org/1999/xlink">
    <!-- Generator: Sketch 49.3 (51167) - http://www.bohemiancoding.com/sketch -->
    <title>acBtn_receive_shipments</title>
    <desc>Created with Sketch.</desc>
    <defs></defs>
    <g id="acBtn_receive_shipments" stroke="none" stroke-width="1" fill="none" fill-rule="evenodd">
        <g transform="translate(3.000000, 7.000000)" fill="#5AAAFA">
            <path d="M21,8 L26,8 L26,11 L21,11 L21,15 L15,9.5 L21,4 L21,8 Z" id="Combined-Shape"></path>
            <path d="M2,16 L15,16 L15,13 L17,13 L17,16 L17,18 L1.77635684e-15,18 L1.77635684e-15,16 L3.20731096e-15,2 L1.77635684e-15,0 L17,0 L17,2 L17,6 L15,6 L15,2 L2,2 L2,16 Z" id="action_move_asset"></path>
            <rect id="Rectangle-22" x="7" y="1" width="3" height="7"></rect>
        </g>
    </g>
</svg>