<?xml version="1.0" encoding="UTF-8"?>
<svg width="32px" height="32px" viewBox="0 0 32 32" version="1.1" xmlns="http://www.w3.org/2000/svg" xmlns:xlink="http://www.w3.org/1999/xlink">
    <!-- Generator: Sketch 49.3 (51167) - http://www.bohemiancoding.com/sketch -->
    <title>acBtn_receive_po</title>
    <desc>Created with Sketch.</desc>
    <defs></defs>
    <g id="acBtn_receive_po" stroke="none" stroke-width="1" fill="none" fill-rule="evenodd">
        <g transform="translate(3.000000, 7.000000)" fill="#5AAAFA">
            <path d="M21,6 L26,6 L26,9 L21,9 L21,13 L15,7.5 L21,2 L21,6 Z" id="Combined-Shape"></path>
            <path d="M2,17 L17,17 L17,15 L19,15 L19,19 L17,19 L1.77635684e-15,19 L1.77635684e-15,17 L-1.33226763e-15,14.75 L2,14.75 L2,17 Z" id="action_move_asset"></path>
            <path d="M10.6796875,10.2575451 C10.6796875,10.04483 10.6518557,9.86065255 10.5961914,9.70500731 C10.5405271,9.54936207 10.4526373,9.41058048 10.3325195,9.28865838 C10.2124017,9.16673628 10.055665,9.05389517 9.86230469,8.95013168 C9.66894435,8.84636819 9.43457169,8.74260625 9.15917969,8.63884276 C8.57909866,8.43131578 8.04590087,8.22119786 7.55957031,8.0084827 C7.07323976,7.79576754 6.65429863,7.55192699 6.30273438,7.27695374 C5.95117012,7.00198049 5.6787119,6.67772444 5.48535156,6.30417587 C5.29199122,5.9306273 5.1953125,5.47926288 5.1953125,4.95006907 C5.1953125,4.50907423 5.28320225,4.10440269 5.45898438,3.73604229 C5.6347665,3.36768189 5.88378745,3.04731692 6.20605469,2.77493775 C6.52832192,2.50255859 6.91503681,2.28206447 7.36621094,2.1134488 C7.81738507,1.94483313 7.86914062,1.88851929 7.86914062,1.82161544 L7.86914062,0.1484375 L10.2666016,0.1484375 L10.2666016,1.82161544 C10.7822291,1.88906171 11.2524393,2.01876413 11.6772461,2.21072659 C12.1020529,2.40268905 12.4653305,2.65301472 12.7670898,2.9617111 C13.0688492,3.27040749 13.301757,3.63227724 13.4658203,4.04733121 C13.6298836,4.46238518 13.7119141,4.92412579 13.7119141,5.4325669 L10.7412109,5.4325669 C10.7412109,5.13684095 10.7075199,4.8826242 10.6401367,4.66990905 C10.5727536,4.45719389 10.4775397,4.28209562 10.3544922,4.144609 C10.2314447,4.00712237 10.0878914,3.90725151 9.92382812,3.84499341 C9.7597648,3.78273532 9.58105565,3.75160674 9.38769531,3.75160674 C9.17089735,3.75160674 8.98486406,3.78403234 8.82958984,3.84888452 C8.67431563,3.9137367 8.54834033,4.00063733 8.45166016,4.10958899 C8.35497999,4.21854066 8.28320336,4.34694605 8.23632812,4.49480903 C8.18945289,4.642672 8.16601562,4.79961193 8.16601562,4.96563352 C8.16601562,5.14203145 8.18945289,5.30026841 8.23632812,5.44034912 C8.28320336,5.58042983 8.36523379,5.71013225 8.48242188,5.82946027 C8.59960996,5.94878828 8.75634667,6.06422344 8.95263672,6.17576919 C9.14892676,6.28731494 9.39355322,6.40015605 9.68652344,6.51429589 C10.2548857,6.72701105 10.7807593,6.94361409 11.2641602,7.16411151 C11.747561,7.38460893 12.1650373,7.6349346 12.5166016,7.91509602 C12.8681658,8.19525745 13.1435537,8.52210755 13.3427734,8.89565612 C13.5419932,9.26920469 13.6416016,9.71797506 13.6416016,10.2419807 C13.6416016,10.7037282 13.5566415,11.1174789 13.3867188,11.4832453 C13.216796,11.8490116 12.9765641,12.1654855 12.6660156,12.4326765 C12.3554672,12.6998674 11.9819358,12.9151735 11.5454102,13.078601 C11.1088845,13.2420285 10.6240261,13.3470874 10.0908203,13.393781 L10.0908203,14.9580078 L7.69335938,14.9580078 L7.69335938,13.3859988 C7.69335938,13.2355347 7.69873286,13.2381373 7.22119141,13.0824921 C6.74364996,12.9268468 6.32031435,12.6985706 5.95117188,12.3976565 C5.5820294,12.0967423 5.28613393,11.7193083 5.06347656,11.265343 C4.8408192,10.8113777 4.72949219,10.2653306 4.72949219,9.62718508 L7.69140625,9.62718508 C7.69140625,9.97479278 7.73828078,10.2640292 7.83203125,10.4949029 C7.92578172,10.7257767 8.05175702,10.9112512 8.20996094,11.0513319 C8.36816485,11.1914126 8.54980366,11.2912835 8.75488281,11.3509475 C8.95996196,11.4106115 9.17382701,11.440443 9.39648438,11.440443 C9.61914174,11.440443 9.81103435,11.4093144 9.97216797,11.3470564 C10.1333016,11.2847983 10.266601,11.2004917 10.3720703,11.0941341 C10.4775396,10.9877765 10.5551755,10.8632622 10.6049805,10.7205874 C10.6547854,10.5779126 10.6796875,10.4235667 10.6796875,10.2575451 Z" id="$"></path>
        </g>
    </g>
</svg>