<svg xmlns="http://www.w3.org/2000/svg" xmlns:xlink="http://www.w3.org/1999/xlink" viewBox="0 0 32 32"><defs><linearGradient id="a" x1="74.5" y1="-24.5" x2="84.5" y2="-24.5" gradientTransform="translate(-66.5 49.5)" gradientUnits="userSpaceOnUse"><stop offset="0" stop-opacity="0"/><stop offset="0.83"/></linearGradient><mask id="b" x="0" y="0" width="32" height="32" maskUnits="userSpaceOnUse"><path d="M17,24H4V10H28v5h2V10a2,2,0,0,0-2-2H22V4a2,2,0,0,0-2-2H12a2,2,0,0,0-2,2V8H4a2,2,0,0,0-2,2V24a2,2,0,0,0,2,2H17ZM12,4h8V8H12Z" fill="#fff"/><rect x="8" y="23" width="10" height="4" fill="url(#a)"/></mask><linearGradient id="c" y1="32" x2="32" gradientUnits="userSpaceOnUse"><stop offset="0.1" stop-color="#a66efa"/><stop offset="0.9" stop-color="#0062ff"/></linearGradient></defs><title>app-icon-light-</title><g mask="url(#b)"><rect width="32" height="32" fill="url(#c)"/></g><rect x="16" y="17" width="2" height="2" fill="#061f80"/><rect x="21" y="17" width="9" height="2" fill="#061f80"/><rect x="16" y="22" width="2" height="2" fill="#061f80"/><rect x="21" y="22" width="9" height="2" fill="#061f80"/><rect x="16" y="27" width="2" height="2" fill="#061f80"/><rect x="21" y="27" width="9" height="2" fill="#061f80"/></svg>