<?xml version="1.0" encoding="UTF-8"?>
<svg width="32px" height="32px" viewBox="0 0 32 32" version="1.1" xmlns="http://www.w3.org/2000/svg" xmlns:xlink="http://www.w3.org/1999/xlink">
    <!-- Generator: Sketch 49.3 (51167) - http://www.bohemiancoding.com/sketch -->
    <title>header_attachment_off</title>
    <desc>Created with Sketch.</desc>
    <defs></defs>
    <g id="header_attachment_off" stroke="none" stroke-width="1" fill="none" fill-rule="evenodd">
        <path d="M9.21679241,27.875 C7.62554241,27.875 6.13014063,27.2362946 5.00710491,26.0767857 C2.70759599,23.7009375 2.70759599,19.835625 5.00710491,17.4589286 L15.6776406,6.43723214 C17.1204531,4.94607143 19.0416585,4.125 21.0867031,4.125 C23.1317478,4.125 25.0529531,4.94607143 26.4957656,6.43723214 C29.4568817,9.49589286 29.4577299,14.4740625 26.4966138,17.5335714 L17.8049621,26.5110714 L16.5869263,25.3303571 L25.2785781,16.3537054 C27.609471,13.945625 27.609471,10.0260268 25.2777299,7.61709821 C24.1563906,6.45928571 22.6677746,5.82142857 21.0867031,5.82142857 C19.5056317,5.82142857 18.0170156,6.45928571 16.8956763,7.61709821 L6.22598884,18.6387946 C4.55670313,20.3640625 4.55585491,23.1716518 6.22598884,24.8960714 C7.02585491,25.7230804 8.08866741,26.1785714 9.21679241,26.1785714 C10.3449174,26.1785714 11.4068817,25.7230804 12.2067478,24.8969196 L20.187596,16.653125 C21.1961228,15.6115179 21.1952746,13.9167857 20.187596,12.8760268 C19.2282656,11.8853125 17.5666138,11.8844643 16.6064353,12.8751786 L10.6053192,19.0739286 L9.38643527,17.8932143 L15.3867031,11.6953125 C16.1882656,10.8666071 17.2578638,10.4102679 18.3953192,10.4102679 C19.5336228,10.4102679 20.6023728,10.8666071 21.4047835,11.6953125 C23.0426853,13.3875 23.0435335,16.1399554 21.4047835,17.8321429 L13.4247835,26.0750893 C12.3034442,27.2362946 10.8080424,27.875 9.21679241,27.875 L9.21679241,27.875 Z" fill="#FFFFFF"></path>
    </g>
</svg>