<?xml version="1.0" encoding="UTF-8"?>
<svg width="28px" height="26px" viewBox="0 0 28 26" version="1.1" xmlns="http://www.w3.org/2000/svg" xmlns:xlink="http://www.w3.org/1999/xlink">
    <!-- Generator: Sketch 49.3 (51167) - http://www.bohemiancoding.com/sketch -->
    <title>action_meterReading_off</title>
    <desc>Created with Sketch.</desc>
    <defs></defs>
    <g id="Symbols" stroke="none" stroke-width="1" fill="none" fill-rule="evenodd">
        <g id="nany-icon-/-meter-reading" transform="translate(-2.000000, -3.000000)" fill="#5AAAFA" fill-rule="nonzero">
            <path d="M22.6358447,27 C25.9563526,24.7928611 28,21.0722776 28,17 C28,10.372583 22.627417,5 16,5 C9.372583,5 4,10.372583 4,17 C4,21.0722776 6.04364736,24.7928611 9.36415535,27 L22.6358447,27 Z M8.53471382,28.8455385 C4.49951894,26.2975192 2,21.862377 2,17 C2,9.2680135 8.2680135,3 16,3 C23.7319865,3 30,9.2680135 30,17 C30,21.862377 27.5004811,26.2975192 23.4652862,28.8455385 L23.2206718,29 L22.9313718,29 L9.06862821,29 L8.77932816,29 L8.53471382,28.8455385 Z M23.2530483,9.76776695 L13,16.4852814 L16.5355339,20.0208153 L23.2530483,9.76776695 Z M15,7 L15,9 L17,9 L17,7 L15,7 Z M9,10 L9,12 L11,12 L11,10 L9,10 Z M6,16 L6,18 L8,18 L8,16 L6,16 Z M24,16 L24,18 L26,18 L26,16 L24,16 Z" id="action_meterReading_off"></path>
        </g>
    </g>
</svg>