<?xml version="1.0" encoding="UTF-8"?>
<svg width="24px" height="24px" viewBox="0 0 24 24" version="1.1" xmlns="http://www.w3.org/2000/svg" xmlns:xlink="http://www.w3.org/1999/xlink">
    <!-- Generator: Sketch 49 (51002) - http://www.bohemiancoding.com/sketch -->
    <title>action_lookup_OFF</title>
    <desc>Created with Sketch.</desc>
    <defs></defs>
    <g id="Symbols" stroke="none" stroke-width="1" fill="none" fill-rule="evenodd">
        <g id="nany-icon-/-lookup-copy" transform="translate(-4.000000, -4.000000)" fill="#5AAAFA">
            <path d="M20.3103148,18.2508536 L27.9502885,25.8983403 L27.9502885,27.953789 L25.8802414,27.953789 L18.249124,20.311559 C16.7716056,21.374176 14.9588873,22 13,22 C8.02943725,22 4,17.9705627 4,13 C4,8.02943725 8.02943725,4 13,4 C17.9705627,4 22,8.02943725 22,13 C22,14.9596518 21.3736875,16.7730204 20.3103148,18.2508536 Z M13,20 C16.8659932,20 20,16.8659932 20,13 C20,9.13400675 16.8659932,6 13,6 C9.13400675,6 6,9.13400675 6,13 C6,16.8659932 9.13400675,20 13,20 Z" id="action_lookup_OFF"></path>
        </g>
    </g>
</svg>