<?xml version="1.0" encoding="UTF-8"?>
<svg width="23px" height="25px" viewBox="0 0 23 25" version="1.1" xmlns="http://www.w3.org/2000/svg" xmlns:xlink="http://www.w3.org/1999/xlink">
    <!-- Generator: Sketch 50.2 (55047) - http://www.bohemiancoding.com/sketch -->
    <title>header_barcode_OFF</title>
    <desc>Created with Sketch.</desc>
    <defs></defs>
    <g id="Symbols" stroke="none" stroke-width="1" fill="none" fill-rule="evenodd">
        <g id="nany-icon-/-header-/-barcode" transform="translate(-5.000000, -4.000000)" fill="#FFFFFF">
            <path d="M5,4 L7,4 L7,28 L5,28 L5,4 Z M26,4 L28,4 L28,28 L26,28 L26,4 Z M21,4 L25,4 L25,22 L21,22 L21,4 Z M12,4 L16,4 L16,22 L12,22 L12,4 Z M18,4 L19,4 L19,22 L18,22 L18,4 Z M8,4 L10,4 L10,22 L8,22 L8,4 Z M10.1,28.084 C8.791,28.084 8.189,27.153 8.189,25.557 C8.189,23.961 8.791,23.03 10.1,23.03 C11.409,23.03 12.011,23.961 12.011,25.557 C12.011,27.153 11.409,28.084 10.1,28.084 Z M10.1,27.258 C10.723,27.258 10.94,26.789 10.94,26.012 L10.94,25.102 C10.94,24.325 10.723,23.856 10.1,23.856 C9.477,23.856 9.26,24.325 9.26,25.102 L9.26,26.012 C9.26,26.789 9.477,27.258 10.1,27.258 Z M10.1,25.97 C9.778,25.97 9.666,25.823 9.666,25.634 L9.666,25.48 C9.666,25.291 9.778,25.144 10.1,25.144 C10.422,25.144 10.534,25.291 10.534,25.48 L10.534,25.634 C10.534,25.823 10.422,25.97 10.1,25.97 Z M16.134,28 L12.732,28 L12.732,27.153 L13.978,27.153 L13.978,24.052 L12.844,24.675 L12.445,23.919 L13.922,23.114 L15.028,23.114 L15.028,27.153 L16.134,27.153 L16.134,28 Z M17.849,25.046 L18.311,25.046 C18.85,25.046 19.088,24.815 19.088,24.514 L19.088,24.465 C19.088,24.115 18.836,23.884 18.402,23.884 C18.003,23.884 17.639,24.094 17.394,24.465 L16.729,23.849 C17.107,23.366 17.59,23.03 18.444,23.03 C19.501,23.03 20.194,23.541 20.194,24.325 C20.194,24.948 19.76,25.333 19.242,25.424 L19.242,25.466 C19.837,25.571 20.285,25.97 20.285,26.642 C20.285,27.517 19.529,28.084 18.374,28.084 C17.394,28.084 16.883,27.636 16.568,27.146 L17.345,26.544 C17.562,26.943 17.856,27.23 18.395,27.23 C18.892,27.23 19.179,26.978 19.179,26.572 L19.179,26.523 C19.179,26.124 18.85,25.921 18.304,25.921 L17.849,25.921 L17.849,25.046 Z M23.981,28 L22.973,28 L22.973,27.062 L20.775,27.062 L20.775,26.166 L22.721,23.114 L23.981,23.114 L23.981,26.25 L24.611,26.25 L24.611,27.062 L23.981,27.062 L23.981,28 Z M22.91,24.199 L21.622,26.25 L22.973,26.25 L22.973,24.199 L22.91,24.199 Z" id="header_barcode_OFF"></path>
        </g>
    </g>
</svg>