<?xml version="1.0" encoding="UTF-8"?>
<svg width="81px" height="30px" viewBox="0 0 81 30" version="1.1" xmlns="http://www.w3.org/2000/svg" xmlns:xlink="http://www.w3.org/1999/xlink">
    <!-- Generator: Sketch 43.2 (39069) - http://www.bohemiancoding.com/sketch -->
    <title>IBM Grey Logo 80 x 30 pixels</title>
    <desc>Created with Sketch.</desc>
    <defs>
        <polygon id="path-1" points="0.06 0.873 0.06 6.94 80.245 6.94 80.245 3.9065 80.245 0.873 0.06 0.873"></polygon>
    </defs>
    <g id="Page-1" stroke="none" stroke-width="1" fill="none" fill-rule="evenodd">
        <g id="IBM-Grey-Logo-80-x-30-pixels">
            <polyline id="Fill-1" fill="#C9C8C3" points="73.855 2.274 61.562 2.274 62.319 0.154 73.855 0.154 73.855 2.274"></polyline>
            <path d="M41.083,0.154 L52.497,0.153 L53.244,2.277 C53.25,2.275 41.087,2.28 41.087,2.277 C41.087,2.275 41.079,0.154 41.083,0.154" id="Fill-2" fill="#C9C8C3"></path>
            <g id="Group-6" fill="#C9C8C3">
                <path d="M32.018,0.153 C33.899,0.335 35.534,1.005 36.927,2.277 C36.927,2.277 16.238,2.279 16.238,2.277 L16.238,0.153 L32.018,0.153" id="Fill-3"></path>
                <polygon id="Fill-5" points="0.06 2.273 14.375 2.273 14.375 0.153 0.06 0.153"></polygon>
            </g>
            <path d="M73.856,6.251 L60.153,6.251 C60.153,6.251 60.9,4.142 60.896,4.141 L73.856,4.141 L73.856,6.251" id="Fill-7" fill="#C9C8C3"></path>
            <polyline id="Fill-8" fill="#C9C8C3" points="54.656 6.253 41.083 6.253 41.083 4.141 53.913 4.141 54.656 6.253"></polyline>
            <g id="Group-12" transform="translate(0.000000, 4.000000)" fill="#C9C8C3">
                <path d="M38.539,0.14 C38.811,0.837 39.134,1.432 39.134,2.25 L16.241,2.25 L16.241,0.14 L38.539,0.14" id="Fill-9"></path>
                <polygon id="Fill-11" points="0.06 2.25 14.375 2.25 14.375 0.14 0.06 0.14"></polygon>
            </g>
            <polyline id="Fill-13" fill="#C9C8C3" points="58.752 10.237 59.503 8.118 69.792 8.121 69.792 10.233 58.752 10.237"></polyline>
            <polyline id="Fill-14" fill="#C9C8C3" points="55.317 8.118 56.066 10.237 45.13 10.237 45.13 8.118 55.317 8.118"></polyline>
            <path d="M39.316,8.117 C39.316,8.844 39.225,9.601 39.013,10.237 L32.744,10.237 L32.744,8.117 L39.316,8.117" id="Fill-15" fill="#C9C8C3"></path>
            <polygon id="Fill-16" fill="#C9C8C3" points="4.008 10.237 10.185 10.237 10.185 8.127 4.008 8.127"></polygon>
            <polygon id="Fill-17" fill="#C9C8C3" points="20.4 10.237 26.567 10.237 26.567 8.117 20.4 8.117"></polygon>
            <path d="M51.205,12.526 C51.205,12.526 51.206,14.13 51.205,14.133 L45.13,14.133 L45.13,12.024 L56.707,12.024 L57.425,13.991 C57.429,13.992 58.119,12.019 58.121,12.024 L69.788,12.024 L69.788,14.133 L63.743,14.133 C63.743,14.13 63.74,12.527 63.74,12.527 L63.18,14.133 L51.763,14.13 L51.205,12.526" id="Fill-18" fill="#C9C8C3"></path>
            <path d="M20.4,12.023 L38.104,12.023 C37.717,12.729 37.014,13.588 36.348,14.133 C36.348,14.133 20.4,14.136 20.4,14.133 L20.4,12.023" id="Fill-19" fill="#C9C8C3"></path>
            <polygon id="Fill-20" fill="#C9C8C3" points="4.008 14.133 10.185 14.133 10.185 12.023 4.008 12.023"></polygon>
            <polygon id="Fill-21" fill="#C9C8C3" points="63.743 18.11 69.788 18.11 69.788 16.001 63.743 16.001"></polygon>
            <path d="M51.205,16.001 L45.13,16.001 L45.13,18.11 C45.127,18.109 51.206,18.111 51.206,18.11 C51.206,18.109 51.213,16.001 51.205,16.001" id="Fill-22" fill="#C9C8C3"></path>
            <path d="M62.522,16.001 C62.494,15.998 61.814,18.109 61.785,18.11 L53.173,18.114 C53.167,18.111 52.416,15.998 52.416,16.001 L62.522,16.001" id="Fill-23" fill="#C9C8C3"></path>
            <path d="M20.399,16.001 L36.318,16.001 C37.045,16.606 37.701,17.353 38.215,18.11 C38.244,18.109 20.4,18.111 20.4,18.11 C20.4,18.109 20.399,16.003 20.399,16.001" id="Fill-24" fill="#C9C8C3"></path>
            <path d="M10.185,18.11 L10.185,16 L4.018,16 C4.018,16 4.02,18.109 4.018,18.109 C4.017,18.109 10.182,18.11 10.185,18.11" id="Fill-25" fill="#C9C8C3"></path>
            <polygon id="Fill-26" fill="#C9C8C3" points="63.743 22.088 69.788 22.088 69.788 19.978 63.743 19.978"></polygon>
            <polygon id="Fill-27" fill="#C9C8C3" points="45.129 22.088 51.204 22.088 51.204 19.978 45.129 19.978"></polygon>
            <path d="M60.371,22.097 C60.372,22.088 61.117,19.976 61.129,19.978 L53.808,19.978 C53.795,19.977 54.558,22.088 54.558,22.088 C54.558,22.088 60.37,22.106 60.371,22.097" id="Fill-28" fill="#C9C8C3"></path>
            <path d="M20.4,22.087 C20.4,22.095 20.399,19.978 20.399,19.978 L26.658,19.977 C26.658,19.977 26.664,22.088 26.658,22.088 C26.653,22.088 20.4,22.085 20.4,22.087" id="Fill-29" fill="#C9C8C3"></path>
            <path d="M39.094,19.977 C39.396,20.613 39.427,21.37 39.487,22.097 L32.855,22.097 L32.855,19.977 L39.094,19.977" id="Fill-30" fill="#C9C8C3"></path>
            <polygon id="Fill-31" fill="#C9C8C3" points="4.018 22.086 10.185 22.086 10.185 19.977 4.018 19.977"></polygon>
            <polygon id="Fill-32" fill="#C9C8C3" points="63.743 25.983 73.855 25.983 73.855 23.873 63.743 23.873"></polygon>
            <polygon id="Fill-33" fill="#C9C8C3" points="41.082 25.983 51.205 25.983 51.205 23.873 41.082 23.873"></polygon>
            <g id="Group-44" transform="translate(0.000000, 23.000000)">
                <mask id="mask-2" fill="white">
                    <use xlink:href="#path-1"></use>
                </mask>
                <g id="Clip-35"></g>
                <polyline id="Fill-34" fill="#C9C8C3" mask="url(#mask-2)" points="59.011 2.983 55.924 2.983 55.182 0.873 59.725 0.873 59.011 2.983"></polyline>
                <path d="M0.001,0.873 L0.001,2.983 L14.364,2.983 C14.371,2.986 14.358,0.875 14.364,0.875 C14.371,0.875 -0.015,0.873 0.001,0.873" id="Fill-36" fill="#C9C8C3" mask="url(#mask-2)"></path>
                <path d="M39.225,0.873 C39.074,1.569 38.934,2.418 38.426,2.983 L16.241,2.983 L16.241,0.873 L39.225,0.873" id="Fill-37" fill="#C9C8C3" mask="url(#mask-2)"></path>
                <polyline id="Fill-38" fill="#C9C8C3" mask="url(#mask-2)" points="57.612 6.965 57.327 6.965 56.606 4.85 58.352 4.85 57.612 6.965"></polyline>
                <polygon id="Fill-39" fill="#C9C8C3" mask="url(#mask-2)" points="63.743 6.94 73.855 6.94 73.855 4.85 63.743 4.85"></polygon>
                <path d="M16.238,6.965 L16.238,4.854 C16.238,4.854 36.989,4.856 37.048,4.856 C35.655,6.189 33.744,6.94 31.685,6.97 L16.241,6.966" id="Fill-40" fill="#C9C8C3" mask="url(#mask-2)"></path>
                <polygon id="Fill-41" fill="#C9C8C3" mask="url(#mask-2)" points="41.082 6.94 51.205 6.94 51.205 4.85 41.082 4.85"></polygon>
                <path d="M14.364,4.86 C14.364,4.86 14.358,6.965 14.364,6.965 C14.371,6.965 0.005,6.974 0.001,6.97 C-0.003,6.965 0.005,4.854 0.001,4.854 C-0.003,4.854 14.358,4.867 14.364,4.86" id="Fill-42" fill="#C9C8C3" mask="url(#mask-2)"></path>
                <path d="M78.147,4.816 C78.472,4.816 78.948,4.869 78.948,4.404 C78.948,4.047 78.656,4.004 78.374,4.004 L77.72,4.004 L77.72,4.816 L78.147,4.816 Z M79.223,6.092 L78.888,6.092 L78.233,5.037 L77.72,5.037 L77.72,6.092 L77.439,6.092 L77.439,3.804 L78.439,3.804 C79.045,3.804 79.25,4.031 79.25,4.41 C79.25,4.859 78.937,5.026 78.531,5.037 L79.223,6.092 Z M79.921,4.945 C79.921,3.95 79.196,3.171 78.201,3.171 C77.201,3.171 76.471,3.95 76.471,4.945 C76.471,5.951 77.201,6.73 78.201,6.73 C79.196,6.73 79.921,5.951 79.921,4.945 Z M76.146,4.945 C76.146,3.82 77.066,2.901 78.201,2.901 C79.332,2.901 80.245,3.82 80.245,4.945 C80.245,6.081 79.332,7 78.201,7 C77.066,7 76.146,6.081 76.146,4.945 L76.146,4.945 Z" id="Fill-43" fill="#C9C8C3" mask="url(#mask-2)"></path>
            </g>
        </g>
    </g>
</svg>