<?xml version="1.0" encoding="UTF-8"?>
<svg width="24px" height="21px" viewBox="0 0 24 21" version="1.1" xmlns="http://www.w3.org/2000/svg" xmlns:xlink="http://www.w3.org/1999/xlink">
    <!-- Generator: Sketch 49 (51002) - http://www.bohemiancoding.com/sketch -->
    <title>warning-icon</title>
    <desc>Created with Sketch.</desc>
    <defs></defs>
    <g id="Symbols" stroke="none" stroke-width="1" fill="none" fill-rule="evenodd">
        <g id="nany-error-/-actions" transform="translate(-9.000000, -13.000000)" fill="#D74108">
            <path d="M21,13 L9,33.8 L33,33.8 L21,13 L21,13 Z M21,16.2016 L30.2296,32.2 L11.7704,32.2 L21,16.2016 Z M20.2,21.8 L20.2,23.4 L20.6,27.4 L21.4,27.4 L21.8,23.4 L21.8,21.8 L20.2,21.8 Z M21,29.8 C21.4418278,29.8 21.8,29.4418278 21.8,29 C21.8,28.5581722 21.4418278,28.2 21,28.2 C20.5581722,28.2 20.2,28.5581722 20.2,29 C20.2,29.4418278 20.5581722,29.8 21,29.8 Z" id="warning-icon"></path>
        </g>
    </g>
</svg>