<?xml version="1.0" encoding="UTF-8"?>
<svg width="37px" height="42px" viewBox="0 0 37 42" version="1.1" xmlns="http://www.w3.org/2000/svg" xmlns:xlink="http://www.w3.org/1999/xlink">
    <!-- Generator: Sketch 49 (51002) - http://www.bohemiancoding.com/sketch -->
    <title>action_timerRunning_OFF</title>
    <desc>Created with Sketch.</desc>
    <defs></defs>
    <g id="Symbols" stroke="none" stroke-width="1" fill="none" fill-rule="evenodd">
        <g id="nany-icon-/-timer-/-on" transform="translate(-4.000000, -1.000000)">
            <g id="action_timerRunning_OFF" transform="translate(4.000000, 1.000000)">
                <path d="M28.424765,27.5791547 L22.5262857,24.1420898 L22.5262857,32.9483699 C20.988207,33.6246192 19.2879409,34 17.5,34 C10.5964406,34 5,28.4035594 5,21.5 C5,14.5964406 10.5964406,9 17.5,9 C24.4035594,9 30,14.5964406 30,21.5 C30,23.7066194 29.4282309,25.779695 28.424765,27.5791547 Z" id="fill" fill="#8CD211"></path>
                <polygon id="play" fill="#5AAAFA" points="24.364347 42.0645486 24.364347 27.2841796 37.046927 34.6743641"></polygon>
                <path d="M32.7461534,30.0972431 L22.5262857,24.1420898 L22.5262857,38.2674577 C20.9342945,38.7439969 19.2470436,39 17.5,39 C7.83501688,39 0,31.1649831 0,21.5 C0,12.6838202 6.51926464,5.3902963 15,4.17722215 L15,3 L13,3 L13,0 L22,0 L22,3 L20,3 L20,4.17722215 C22.384313,4.5182714 24.6135869,5.33993333 26.5865369,6.54092321 L28.9253441,3.85043327 L32.698892,7.13072841 L30.4449258,9.72361991 C33.2748255,12.832511 35,16.9647874 35,21.5 C35,24.6246563 34.1810785,27.5580433 32.7461534,30.0972431 Z M30.1533706,28.5864193 L22.5262857,24.1420898 L22.5262857,35.1051722 C20.9603244,35.6839045 19.2670762,36 17.5,36 C9.49187113,36 3,29.5081289 3,21.5 C3,13.4918711 9.49187113,7 17.5,7 C25.5081289,7 32,13.4918711 32,21.5 C32,24.0738334 31.3293921,26.4910379 30.1533706,28.5864193 Z" id="stroke" fill="#777677"></path>
                <path d="M17.7254628,19.0883087 L23.3436955,14.1662321 L25.3109096,14.1325484 L25.2768031,16.1172845 L19.8376415,21.0239403 C19.9428704,21.3299299 20,21.6582933 20,22 C20,23.6568542 18.6568542,25 17,25 C15.3431458,25 14,23.6568542 14,22 C14,20.3431458 15.3431458,19 17,19 C17.250153,19 17.4931549,19.0306172 17.7254628,19.0883087 Z" id="pointer" fill="#FDFEFF"></path>
            </g>
        </g>
    </g>
</svg>