<svg xmlns="http://www.w3.org/2000/svg" xmlns:xlink="http://www.w3.org/1999/xlink" viewBox="0 0 32 32"><defs><style>.a{fill:#fff;}.b{fill:url(#a);}.c{mask:url(#b);}.d{fill:#f3f3f3;}</style><linearGradient id="a" x1="74.5" y1="-24.5" x2="84.5" y2="-24.5" gradientTransform="translate(-66.5 49.5)" gradientUnits="userSpaceOnUse"><stop offset="0" stop-opacity="0"/><stop offset="0.83"/></linearGradient><mask id="b" x="0" y="0" width="32" height="32" maskUnits="userSpaceOnUse"><path class="a" d="M17,24H4V10H28v8h2V10a2,2,0,0,0-2-2H22V4a2,2,0,0,0-2-2H12a2,2,0,0,0-2,2V8H4a2,2,0,0,0-2,2V24a2,2,0,0,0,2,2H17ZM12,4h8V8H12Z"/><rect class="b" x="8" y="23" width="10" height="4"/></mask></defs><title>app-icon-monodark-</title><g class="c"><rect class="d" width="32" height="32"/></g><polygon class="d" points="20 26 27.17 26 24.59 28.59 26 30 31 25 26 20 24.59 21.41 27.17 24 20 24 20 26"/><polygon class="d" points="22 18 14.83 18 17.41 15.41 16 14 11 19 16 24 17.41 22.59 14.83 20 22 20 22 18"/></svg>