<?xml version="1.0" encoding="UTF-8"?>
<svg width="26px" height="20px" viewBox="0 0 26 20" version="1.1" xmlns="http://www.w3.org/2000/svg" xmlns:xlink="http://www.w3.org/1999/xlink">
    <!-- Generator: Sketch 49 (51002) - http://www.bohemiancoding.com/sketch -->
    <title>header_disconnected</title>
    <desc>Created with Sketch.</desc>
    <defs></defs>
    <g id="Symbols" stroke="none" stroke-width="1" fill="none" fill-rule="evenodd">
        <g id="nany-icon-/-header-/-offline" transform="translate(-3.000000, -6.000000)" fill="#FFFFFF">
            <path d="M24.1125,12.7549669 C23.36875,8.92715232 20.18125,6 16.25,6 C14.65625,6 13.16875,6.45033113 12,7.35099338 L13.59375,9.0397351 C14.3375,8.47682119 15.29375,8.25165563 16.25,8.25165563 C19.4375,8.25165563 22.09375,11.0662252 22.09375,14.4437086 L22.09375,15.0066225 L23.6875,15.0066225 C25.49375,15.0066225 26.875,16.4701987 26.875,18.384106 C26.875,19.6225166 26.2375,20.7483444 25.175,21.3112583 L26.76875,23 C28.15,21.986755 29,20.2980132 29,18.384106 C29,15.4569536 26.76875,12.9801325 24.1125,12.7549669 L24.1125,12.7549669 Z M6.28571429,7.44444444 L9.35238095,10.4444444 C5.84761905,10.6666667 3,13.5555556 3,17.1111111 C3,20.7777778 5.95714286,23.7777778 9.57142857,23.7777778 L22.3857143,23.7777778 L24.5761905,26 L26,24.5555556 L7.70952381,6 L6.28571429,7.44444444 L6.28571429,7.44444444 Z M11.2408759,13 L20,22 L9.37956204,22 C6.97080292,22 5,19.975 5,17.5 C5,15.025 6.97080292,13 9.37956204,13 L11.2408759,13 L11.2408759,13 Z" id="header_disconnected"></path>
        </g>
    </g>
</svg>