<?xml version="1.0" encoding="utf-8"?>
<!-- Generator: Adobe Illustrator 23.1.1, SVG Export Plug-In . SVG Version: 6.00 Build 0)  -->
<svg version="1.1" id="Layer_1" xmlns="http://www.w3.org/2000/svg" xmlns:xlink="http://www.w3.org/1999/xlink" x="0px" y="0px"
	 viewBox="0 0 46 18" style="enable-background:new 0 0 46 18;" xml:space="preserve">
<style type="text/css">
	.st0{fill-rule:evenodd;clip-rule:evenodd;fill:#616161;}
</style>
<title>IBM Logo</title>
<desc>Created with Sketch.</desc>
<g id="iOS-Login---SF-Pro">
	<g transform="translate(-489.000000, -771.000000)">
		<g id="IBM-Logo">
			<path class="st0" d="M498.3,787.7v1.3h-8.8v-1.3H498.3z M512.1,787.7l-0.2,0.2l-0.3,0.2l-0.3,0.2l-0.3,0.2l-0.3,0.1l-0.3,0.1
				l-0.3,0.1l-0.3,0.1l-0.3,0.1l-0.3,0l-0.3,0h-9.4v-1.3H512.1z M520.8,787.7v1.3h-6.3v-1.3H520.8z M534.5,787.7v1.3h-6.2v-1.3
				H534.5z M525.1,787.7l-0.4,1.3h-0.2l-0.4-1.3H525.1z M525.9,785.3l-0.4,1.3h-1.8l-0.4-1.3H525.9z M534.5,785.3v1.3h-6.2v-1.3
				H534.5z M498.3,785.3v1.3h-8.8v-1.3H498.3z M513.4,785.3l-0.1,0.3l-0.1,0.3l-0.1,0.3l-0.1,0.3l-0.1,0.1h-13.4v-1.3H513.4z
				 M520.8,785.3v1.3h-6.3v-1.3H520.8z M495.8,783v1.2H492V783H495.8z M505.8,783v1.2H502V783H505.8z M513.3,783l0,0.1l0.1,0.3
				l0,0.3l0,0.3l0,0.2h-4V783H513.3z M520.8,783v1.2h-3.8V783H520.8z M526.7,783l-0.4,1.2h-3.5l-0.4-1.2H526.7z M532.1,783v1.2h-3.8
				V783H532.1z M495.8,780.6v1.2H492v-1.2H495.8z M511.6,780.6l0.2,0.2l0.2,0.2l0.2,0.2l0.2,0.2l0.2,0.3l0.1,0.1H502v-1.2H511.6z
				 M520.8,780.6v1.2h-3.8v-1.2H520.8z M527.5,780.6l-0.4,1.2H522l-0.4-1.2H527.5z M532.1,780.6v1.2h-3.8v-1.2H532.1z M524.2,778.2
				l0.4,1.1l0.4-1.1h7.1v1.2h-3.8v-1.1l-0.4,1.1h-6.7l-0.4-1.1v1.1h-3.8v-1.2H524.2z M512.8,778.2l-0.1,0.2l-0.2,0.3l-0.2,0.2
				l-0.2,0.2l-0.2,0.2l-0.2,0.1H502v-1.2H512.8z M495.8,778.2v1.2H492v-1.2H495.8z M495.8,775.8v1.2H492v-1.2H495.8z M505.8,775.8
				v1.2H502v-1.2H505.8z M513.6,775.8l0,0.2l0,0.3l0,0.3l-0.1,0.3l0,0.1h-3.8v-1.2H513.6z M523.3,775.8l0.4,1.2h-6.7v-1.2H523.3z
				 M532.1,775.8v1.2h-6.7l0.4-1.2H532.1z M498.3,773.4v1.2h-8.8v-1.2H498.3z M513,773.4l0.1,0.1l0.1,0.3l0.1,0.3l0.1,0.5h-13.9
				v-1.2H513z M522.5,773.4l0.4,1.2h-8.4v-1.2H522.5z M534.5,773.4v1.2h-8.3l0.4-1.2H534.5z M498.3,771v1.2h-8.8V771H498.3z
				 M509.3,771l0.3,0l0.3,0.1l0.3,0.1l0.3,0.1l0.3,0.1l0.3,0.1l0.3,0.2l0.3,0.2l0.3,0.2l0.2,0.2h-12.6V771H509.3z M521.7,771
				l0.4,1.2h-7.6V771H521.7z M534.5,771v1.2H527l0.4-1.2H534.5z"/>
		</g>
	</g>
</g>
</svg>
